<svg width="22" height="33" fill="none" xmlns="http://www.w3.org/2000/svg"><path d="M11 1.551L1.034 16.5 11 31.449 20.966 16.5 11 1.551zM11 0l11 16.5L11 33 0 16.5 11 0z" fill="#FFC22D"/><path d="M8.008 12.639l-.983 1.32-.41 4.18V13.54l1.393-.902zm2.582-4.026L9.312 9.955 8.88 11.99v-1.969l.982-.836v.044l.726-.616zM4.803 18.14h1.812l-1.658.308-.704 1.353.55-1.661z" fill="#FFC22D"/><path d="M9.607 11.518v-1.21L11 9.228v1.354l-1.393.934zm.564 8.172H9.74v-1.364l.432-.044v1.408zm0-2.958l-.432.099v-1.364l.432-.155v1.42zm0-2.773l-.432.198v-1.375l.432-.242v1.419zM8.91 19.69h-.352v-1.232l.352-.044v1.276zm0-2.662l-.352.077v-1.232l.352-.121v1.276zm0-2.498l-.352.155v-1.232l.352-.198v1.276zm-1.085 5.16H7.53v-1.122l.294-.033v1.155zm0-2.409l-.294.066v-1.122l.294-.099v1.155zm0-2.266l-.294.132v-1.122l.294-.165v1.155z" fill="#FFC22D"/><path d="M10.59 8.613l.41-.396-1.137.968V7.48L11 5.83l1.137 1.65v1.705l.982.836v1.98l2.274 1.53v4.597h1.804l.55 1.672H11v-9.218l1.393.935v-1.21L11 9.23v-.957l-.41.341zm.05-.858l-.344.32v.66l.345-.298v-.682zm1.621 5.027l-.44-.242v1.42l.44.197v-1.375zm0 2.684l-.44-.154v1.42l.44.098v-1.364zm0 2.86l-.44-.044v1.408h.44v-1.364zm1.914 1.364h.294v-1.122l-.294-.033v1.155zm0-2.409l.294.066v-1.122l-.294-.099v1.155zm0-2.266l.294.132v-1.122l-.294-.165v1.155zM13.09 19.69h.36v-1.232l-.36-.044v1.276zm0-2.662l.36.088v-1.232l-.36-.12v1.264zm0-2.497l.36.165v-1.232l-.36-.198v1.265zM11.3 8.448l.345.297v-.66l-.344-.319v.682z" fill="#FFC22D"/><path d="M10.59 8.614l-.727.616v-.044L11 8.229l-.41.385zm8.513 11.131l-16.17.055L11 31.9l8.103-12.155z" fill="#FFC22D"/></svg>